PathFileType	4	(X/Y/Z)	3_coords_data.trc
DataRate	CameraRate	NumFrames	NumMarkers	Units	OrigDataRate	OrigDataStartFrame	OrigNumFrames
30.0	30.0	8	21	m	30.0	21	71
Frame#	Time	THUMB_TIP	THUMB_IP	THUMB_MCP	THUMB_CMC	INDEX_TIP	INDEX_DIP	INDEX_PIP	INDEX_MCP	MIDDLE_TIP	MIDDLE_DIP	MIDDLE_PIP	MIDDLE_MCP	RING_TIP	RING_DIP	RING_PIP	RING_MCP	PINKY_TIP	PINKY_DIP	PINKY_PIP	PINKY_MCP	WRIST
X1	Y1	Z1	X2	Y2	Z2	X3	Y3	Z3	X4	Y4	Z4	X5	Y5	Z5	X6	Y6	Z6	X7	Y7	Z7	X8	Y8	Z8	X9	Y9	Z9	X10	Y10	Z10	X11	Y11	Z11	X12	Y12	Z12	X13	Y13	Z13	X14	Y14	Z14	X15	Y15	Z15	X16	Y16	Z16	X17	Y17	Z17	X18	Y18	Z18	X19	Y19	Z19	X20	Y20	Z20	X21	Y21	Z21
20	0.6666666666666666	-0.09708899688720703	-0.07485469818115234	0.9795440063476563	-0.11913300323486328	-0.07697599792480468	0.973031982421875	-0.13850300598144533	-0.06008449935913086	0.9819580078125	-0.13379400634765626	-0.035237201690673826	0.998541015625	-0.129218994140625	-0.11992500305175781	0.9068579711914062	-0.12985499572753906	-0.09992710113525391	0.9157750244140626	-0.1300189971923828	-0.07782099914550782	0.9259039916992188	-0.128302001953125	-0.040310001373291014	0.9430360107421875	-0.11345700073242188	-0.06483769989013671	0.967718994140625	-0.10742800140380859	-0.0813281021118164	0.9568170166015625	-0.104572998046875	-0.07576200103759766	0.931822021484375	-0.10534799957275391	-0.03571049880981445	0.9426320190429688	-0.09955039978027344	-0.06250389862060547	0.9757589721679687	-0.09062419891357422	-0.07612310028076172	0.9640070190429687	-0.08173750305175781	-0.07139450073242187	0.942947021484375	-0.087875	-0.03507659912109375	0.9544749755859375	-0.040561901092529294	-0.09223850250244141	0.9457559814453125	-0.04962689971923828	-0.07594850158691406	0.9530280151367188	-0.0600088996887207	-0.06133459854125976	0.960072998046875	-0.07781829833984374	-0.03955329895019531	0.9733140258789063	-0.12319999694824219	-0.0008483620285987851	1.0229099731445312
21	0.7	-0.09740489959716797	-0.07494499969482422	0.9794739990234375	-0.11905300140380859	-0.07690450286865234	0.973218017578125	-0.14012300109863282	-0.060061798095703126	0.9805289916992187	-0.13244099426269532	-0.035227100372314454	0.99814501953125	-0.1290330047607422	-0.12011000061035157	0.9068209838867187	-0.12972500610351562	-0.09997720336914062	0.9158259887695313	-0.1299360046386719	-0.07801679992675781	0.9258629760742187	-0.12832899475097656	-0.04049069976806641	0.9429229736328125	-0.11363099670410157	-0.06453600311279296	0.968385009765625	-0.10711299896240234	-0.08174949645996094	0.9565989990234375	-0.1044209976196289	-0.07593659973144531	0.93181298828125	-0.10553900146484375	-0.035917400360107425	0.9428040161132812	-0.09987000274658203	-0.06235319900512695	0.97639599609375	-0.09067410278320312	-0.07592410278320312	0.9642689819335938	-0.08181269836425781	-0.07158820343017579	0.9430460205078125	-0.08793779754638673	-0.03508250045776367	0.9544600219726562	-0.04051409912109375	-0.0922822036743164	0.9457039794921875	-0.04959090042114258	-0.07599490356445313	0.9530089721679688	-0.059991600036621094	-0.061405601501464846	0.9600280151367188	-0.07774749755859375	-0.039854698181152344	0.9732969970703125	-0.12333000183105469	-0.000384752988815307	1.0238599853515624
22	0.7333333333333333	-0.09665619659423828	-0.07528089904785157	0.9789940185546875	-0.11889600372314453	-0.07714710235595704	0.9730809936523438	-0.13978900146484374	-0.06000830078125	0.9804119873046875	-0.133968994140625	-0.034987098693847654	0.9982369995117187	-0.12886199951171876	-0.12022299957275391	0.9069039916992188	-0.1295760040283203	-0.10009500122070313	0.9159180297851562	-0.12983299255371095	-0.07812850189208985	0.9258900146484375	-0.12820899963378907	-0.040552501678466794	0.9429769897460938	-0.11310299682617188	-0.0654145965576172	0.968094970703125	-0.10716400146484376	-0.08159339904785157	0.9566409912109375	-0.10428700256347656	-0.0760281982421875	0.931781005859375	-0.10537699890136719	-0.035945201873779295	0.9428770141601562	-0.09968270111083985	-0.06300279998779297	0.9764669799804687	-0.09068740081787109	-0.07600520324707032	0.964093017578125	-0.08148320007324218	-0.07141000366210938	0.9426259765625	-0.08787870025634766	-0.03507780075073242	0.9544660034179687	-0.040465400695800784	-0.09224030303955078	0.9456939697265625	-0.04955690002441406	-0.07597470092773438	0.9530029907226563	-0.05996129989624024	-0.06131489944458008	0.9600989990234375	-0.07781780242919922	-0.03968659973144531	0.9735399780273437	-0.12364499664306641	-0.0006152169704437251	1.023280029296875
23	0.7666666666666667	-0.09744930267333984	-0.07495809936523437	0.97952099609375	-0.11883799743652344	-0.07711319732666015	0.9732960205078125	-0.14005099487304687	-0.06006510162353516	0.9809119873046875	-0.13253199768066407	-0.035029499053955075	0.9981329956054688	-0.1288560028076172	-0.120177001953125	0.9069639892578125	-0.12952400207519532	-0.10018699645996093	0.91585302734375	-0.1298990020751953	-0.07817960357666015	0.9258829956054687	-0.12834500122070314	-0.040555698394775394	0.9429099731445313	-0.113427001953125	-0.06459049987792968	0.9683779907226563	-0.10724400329589844	-0.08113580322265625	0.956906982421875	-0.10438400268554687	-0.07594629669189454	0.9319990234375	-0.10536399841308594	-0.03583969879150391	0.9428200073242188	-0.09993509674072265	-0.06271129989624023	0.9769229736328126	-0.09057620239257813	-0.07604979705810547	0.9640770263671875	-0.08148989868164062	-0.07141290283203125	0.9427020263671875	-0.08781500244140625	-0.03506259918212891	0.9544099731445312	-0.040511398315429686	-0.09225080108642578	0.9457940063476562	-0.04955879974365234	-0.07599030303955077	0.9530419921875	-0.05994729995727539	-0.061389701843261715	0.960051025390625	-0.07778659820556641	-0.03977080154418945	0.9734559936523437	-0.12323100280761719	-0.000628014981746673	1.0229500122070312
24	0.8	-0.09667359924316406	-0.07491840362548828	0.979489013671875	-0.11896499633789062	-0.0770074005126953	0.9733289794921876	-0.13980799865722657	-0.059995700836181644	0.9805269775390625	-0.13370700073242187	-0.035006000518798826	0.9984390258789062	-0.12882000732421875	-0.12015299987792968	0.9070189819335938	-0.12955400085449217	-0.10000700378417969	0.91597900390625	-0.129822998046875	-0.07811370086669922	0.9259140014648437	-0.12796800231933594	-0.04054380035400391	0.9431489868164062	-0.11348999786376954	-0.06480180358886718	0.967927001953125	-0.10713600158691407	-0.08170490264892578	0.9567780151367188	-0.10437899780273438	-0.07582640075683594	0.9318469848632812	-0.1053550033569336	-0.035748500823974606	0.9428599853515625	-0.09969049835205078	-0.0623588981628418	0.9767239990234375	-0.0905427017211914	-0.07601589965820313	0.9642529907226562	-0.08157240295410156	-0.07133329772949219	0.9429089965820312	-0.08789669799804688	-0.035141101837158205	0.9546179809570312	-0.04055860137939453	-0.09221959686279296	0.9458319702148438	-0.04958919906616211	-0.07594750213623047	0.9531179809570313	-0.05998059844970703	-0.061319198608398434	0.96014501953125	-0.07771949768066407	-0.03966880035400391	0.9732919921875	-0.12310299682617187	-0.000561478972434997	1.02302001953125
25	0.8333333333333334	-0.09708170318603515	-0.07504049682617188	0.97935400390625	-0.11882599639892578	-0.07689320373535156	0.9733920288085938	-0.13991400146484376	-0.05994770050048828	0.9805189819335938	-0.13268099975585937	-0.035093700408935544	0.9984429931640625	-0.12878199768066406	-0.12006199645996093	0.9069959716796875	-0.12957200622558593	-0.09985639953613282	0.9160139770507812	-0.1298090057373047	-0.07792669677734375	0.92597998046875	-0.12828500366210938	-0.040381099700927736	0.9430900268554687	-0.11338200378417969	-0.06432640075683593	0.9684099731445313	-0.10709100341796875	-0.08158059692382813	0.9565440063476562	-0.10439900207519531	-0.07570179748535157	0.9318839721679687	-0.10539800262451172	-0.03567570114135742	0.9426370239257813	-0.10003500366210938	-0.06243410110473633	0.9767139892578125	-0.09057150268554688	-0.07589849853515625	0.963781005859375	-0.08161440277099609	-0.07129290008544922	0.9428820190429688	-0.08798919677734375	-0.03494020080566406	0.954530029296875	-0.04060300064086914	-0.09208550262451172	0.9457869873046875	-0.04965430068969726	-0.07579769897460938	0.953072021484375	-0.06004010009765625	-0.061176300048828125	0.9600969848632812	-0.07790689849853516	-0.039485298156738284	0.9737529907226562	-0.12392400360107422	-0.000341823995113372	1.023469970703125
26	0.8666666666666667	-0.09752559661865234	-0.07469930267333984	0.9797109985351562	-0.1189010009765625	-0.07693119812011719	0.9732769775390625	-0.13874400329589845	-0.059977100372314456	0.9817080078125	-0.13405299377441407	-0.03496739959716797	0.998406982421875	-0.12879499816894532	-0.11990899658203125	0.9068880004882812	-0.12963999938964843	-0.09982279968261719	0.9157429809570312	-0.12995700073242186	-0.07777719879150391	0.925989990234375	-0.12847500610351562	-0.04024879837036133	0.9430380249023438	-0.11304499816894531	-0.06454789733886719	0.9676069946289062	-0.10734100341796875	-0.08129389953613281	0.9568070068359374	-0.10461399841308594	-0.07555979919433593	0.9317160034179688	-0.10562999725341797	-0.035525501251220705	0.9427930297851562	-0.10007499694824219	-0.06223889923095703	0.9773829956054687	-0.0907582015991211	-0.07576850128173829	0.9639840087890625	-0.08169129943847656	-0.07117749786376953	0.942906005859375	-0.08816840362548828	-0.03466429901123047	0.9545789794921875	-0.04074810028076172	-0.09200199890136719	0.94577197265625	-0.049789199829101564	-0.07566609954833985	0.9530919799804688	-0.06016469955444336	-0.061051300048828125	0.9600780029296875	-0.07807140350341797	-0.03943529891967774	0.9732579956054688	-0.12353399658203125	-0.0008348929882049561	1.0232000122070313
27	0.9	-0.09770010375976562	-0.0746791000366211	0.9796389770507813	-0.11914900207519531	-0.07678520202636718	0.9731270141601562	-0.14055900573730468	-0.05984320068359375	0.9808889770507813	-0.1331280059814453	-0.034883098602294924	0.99827001953125	-0.128843994140625	-0.11971099853515625	0.9067670288085937	-0.12958700561523437	-0.09966130065917969	0.9157550048828125	-0.1300659942626953	-0.07759770202636719	0.9256810302734375	-0.12857899475097656	-0.0400452995300293	0.9430009765625	-0.11371499633789063	-0.06433779907226563	0.968426025390625	-0.10723600006103516	-0.08095770263671875	0.9569140014648437	-0.10445099639892579	-0.07549320220947266	0.9316890258789062	-0.10573300170898438	-0.035321701049804685	0.9427440185546875	-0.10030599975585938	-0.06261040115356445	0.97702001953125	-0.09096219635009765	-0.07560199737548828	0.9640059814453125	-0.08169899749755859	-0.0709720001220703	0.9426859741210938	-0.08830269622802735	-0.03469340133666992	0.9545059814453125	-0.04094499969482422	-0.09189830017089844	0.945676025390625	-0.0499723014831543	-0.07556839752197266	0.9530560302734375	-0.06029029846191406	-0.060914600372314456	0.9600609741210937	-0.07798020172119141	-0.039500099182128906	0.9731829833984375	-0.12399299621582031	-0.00035008800029754603	1.0241800537109376
